<svg width="300" height="300" viewBox="0 0 300 300" fill="none" xmlns="http://www.w3.org/2000/svg">
<rect width="300" height="300" fill="white"/>
<path d="M157.842 104.604C162.664 89.5559 175.666 80.2043 186.773 83.7515C197.933 87.2986 203.026 102.347 198.15 117.396C193.328 132.444 180.325 141.796 169.219 138.249C158.113 134.755 152.966 119.653 157.842 104.604Z" fill="#02872E"/>
<path d="M223.345 122.657C213.317 119.398 201.456 128.578 196.819 143.135C192.237 157.692 196.604 172.086 206.632 175.345C216.66 178.604 228.521 169.37 233.157 154.868C237.794 140.31 233.373 125.916 223.345 122.657Z" fill="#02872E"/>
<path d="M138.044 139.402C148.678 136.186 153.041 120.867 147.751 105.167C142.461 89.4666 129.591 79.3813 118.956 82.5976C108.322 85.814 103.959 101.187 109.249 116.833C114.539 132.533 127.409 142.619 138.044 139.402Z" fill="#02872E"/>
<path d="M109.888 142.583C104.994 127.959 92.9724 118.566 83.0785 121.554C73.1847 124.543 69.1952 138.793 74.089 153.417C78.9827 168.041 91.0043 177.434 100.898 174.446C110.792 171.457 114.835 157.207 109.888 142.583Z" fill="#02872E"/>
<path d="M154.084 143H151.916C151.916 143 108.838 150.004 109 198.979C108.892 227.744 133.113 215.34 133.113 215.34C133.113 215.34 143.355 205.128 151.916 205.128L154.084 204.914C162.591 204.914 172.886 215.073 172.886 215.073C172.886 215.073 197.162 227.744 196.999 198.979C197.216 150.004 154.084 143 154.084 143Z" fill="#02872E"/>
<path d="M6 149.5C6 65.5985 70.7865 9 150 9C229.214 9 294 65.5985 294 149.5C294 233.402 229.268 290 150 290C70.7324 290 6 233.402 6 149.5ZM266.605 149.5C266.605 79.6539 215.165 30.2715 150 30.2715C84.8353 30.2715 33.3952 79.6539 33.3952 149.5C33.3952 219.346 84.8353 268.728 150 268.728C215.165 268.728 266.605 219.346 266.605 149.5Z" fill="#02872E"/>
</svg>
